<svg width="102" height="102" fill="none" xmlns="http://www.w3.org/2000/svg"><path d="M77.524 12.027c-.48-.215-.818-.305-1.016-.27-.203.036-.44.287-.71.75l-3.189 5.465c-.254.436-.353.758-.298.967.052.213.297.469.734.767l-.133.227-3.473-2.026.133-.227c.466.24.813.342 1.041.31.225-.036.456-.257.694-.665l3.443-5.903a.781.781 0 0 0 .123-.362c-.004-.104-.078-.212-.222-.323a3.705 3.705 0 0 0-.274-.191 20.573 20.573 0 0 0-.572-.342c-1.092-.637-1.882-.978-2.371-1.022-.49-.044-1.13.2-1.92.73l-.313-.183 1.842-1.78 6.61 3.857-.129.222zM67.017 9.824c-.264.883-.766 1.545-1.506 1.986-.746.443-1.56.534-2.444.27-.878-.263-1.52-.768-1.924-1.517-.404-.75-.463-1.603-.177-2.56.264-.883.773-1.567 1.526-2.053.754-.485 1.574-.595 2.462-.33.851.255 1.479.783 1.882 1.585.403.801.463 1.674.181 2.62zm-3.644 1.912c.35.105.689.08 1.015-.074.564-.27.994-.9 1.29-1.89.235-.79.278-1.579.127-2.368-.155-.79-.55-1.28-1.184-1.47-.497-.148-.947-.034-1.35.343-.407.377-.72.935-.942 1.676a4.968 4.968 0 0 0-.136 2.322c.14.78.532 1.268 1.18 1.461zM58.183 4.514c-.428-.004-.716.042-.865.14-.15.1-.242.336-.278.705l-.305 3.117c-.045.456-.033.785.036.987.063.206.208.32.434.342.046.005.109.004.188-.002.075-.002.155-.008.24-.019l-.023.228-.836.205c-.286.07-.484.12-.594.151-.24.065-.486.14-.741.228-.032-.004-.05-.017-.052-.04a.482.482 0 0 1 0-.147l.111-1.133c-.335.38-.65.673-.944.877-.299.204-.596.29-.89.262a.794.794 0 0 1-.553-.27.692.692 0 0 1-.17-.547.693.693 0 0 1 .22-.46.534.534 0 0 1 .44-.153c.175.018.344.116.508.294.16.179.29.273.391.283.162.016.373-.096.633-.336.26-.235.404-.49.431-.767l.305-3.117c.039-.397-.026-.682-.195-.857-.17-.17-.47-.271-.899-.304l.023-.228 3.407.333-.022.228zM47.652 10.512a2.448 2.448 0 0 1-1.77-.526c-.528-.404-.829-1.018-.902-1.844l4.392-.391c-.142-1.066-.453-1.824-.935-2.273-.481-.45-1.022-.648-1.621-.595-.485.043-.882.206-1.19.49-.31.283-.585.67-.825 1.16l-.25-.06c.138-.603.444-1.177.921-1.721.472-.544 1.084-.85 1.836-.917.867-.077 1.567.19 2.1.803.529.613.831 1.346.907 2.2.083.926-.12 1.75-.609 2.473-.489.722-1.173 1.122-2.054 1.2zm.356-.541c.526-.047.906-.316 1.141-.806.126-.262.204-.585.235-.969l-2.92.26c.093.457.21.792.355 1.007.262.386.659.555 1.189.508zM40.325 4.989c-.329.153-.535.29-.618.414-.129.19-.125.474.012.852l1.217 3.378c.116.322.236.518.36.587.118.07.276.07.471 0 .092-.034.16-.063.205-.09.04-.024.087-.058.14-.102l.082.23-.413.325c-.15.118-.392.321-.726.609-.334.288-.512.435-.534.443-.022.008-.039.002-.05-.018a.802.802 0 0 1-.052-.122l-.318-.882c-.29.548-.565.952-.825 1.213a2.325 2.325 0 0 1-.885.577c-.448.162-.86.138-1.236-.071a2.11 2.11 0 0 1-.589-.548c-.204.443-.398.786-.581 1.029-.316.419-.69.706-1.121.862-.702.252-1.273.136-1.713-.35-.252-.273-.503-.759-.754-1.456l-.977-2.71c-.112-.31-.255-.497-.431-.561-.179-.06-.453-.041-.823.052l-.06-.17L33.05 7.42l.066.182c-.366.172-.587.338-.662.498-.08.161-.054.423.076.784l1.015 2.816c.152.422.31.717.474.885.29.299.67.363 1.14.194.284-.102.53-.297.742-.585.122-.167.257-.412.406-.737l-1.206-3.345c-.127-.352-.284-.598-.472-.737-.193-.138-.491-.14-.897-.01l-.06-.17 2.998-1.08.06.17c-.394.201-.621.396-.681.585-.06.19.014.573.223 1.152l.66 1.83c.241.67.451 1.116.63 1.338.297.375.679.478 1.145.31.266-.096.5-.264.704-.505.205-.236.363-.507.474-.813l-1.288-3.573c-.12-.331-.258-.54-.417-.625-.163-.084-.44-.058-.828.077l-.062-.17 2.973-1.071.061.17zM26.605 21.732c.131.15.192.324.181.524a.687.687 0 0 1-.245.5.679.679 0 0 1-.523.172.687.687 0 0 1-.5-.245.701.701 0 0 1-.177-.529.69.69 0 0 1 .245-.49.713.713 0 0 1 1.02.068zm-5.106-7.187c-.342.361-.522.63-.54.806-.016.18.155.473.511.88l2.181 2.493c.198.227.351.37.459.43.177.097.35.072.517-.074a.857.857 0 0 0 .105-.111c.03-.038.11-.157.24-.358l.142.162-.16.27c-.436.732-.73 1.254-.882 1.565a.905.905 0 0 1-.134.227.378.378 0 0 1-.079-.069l-3.283-3.753c-.347-.397-.612-.605-.794-.624-.186-.015-.46.11-.823.378l-.128-.146 2.54-2.222.128.146zM15.737 21.774c-.322-.1-.618-.106-.888-.017-.269.095-.503.27-.703.524-.309.394-.377.882-.205 1.464.173.59.61 1.159 1.308 1.708.67.526 1.285.773 1.845.742.557-.027.986-.232 1.287-.614.211-.27.32-.581.327-.935.01-.35-.064-.59-.224-.715l-2.747-2.157zm-1.897-4.298c-.247.36-.344.634-.292.822.05.192.207.392.473.6l5.243 4.118c.277.218.48.322.611.312.132-.002.27-.096.416-.282.032-.04.06-.08.085-.12.022-.035.053-.09.094-.164l.18.142-.238.652c-.01.02-.172.485-.485 1.393-.014.019-.034.024-.058.017a.113.113 0 0 1-.067-.026l-.737-.58c.051.43.064.781.037 1.055a2.403 2.403 0 0 1-.487 1.25c-.395.503-.948.765-1.661.788-.712.03-1.44-.247-2.182-.83a4.152 4.152 0 0 1-1.468-2.213c-.253-.899-.121-1.678.396-2.337.16-.204.325-.36.493-.47a2.01 2.01 0 0 1 .926-.314l-1.785-1.402c-.368-.29-.641-.407-.82-.352-.177.054-.44.272-.786.653l-.191-.15 2.123-2.703.18.141zM11.685 29.216l-.102.205c-.52-.139-.947-.19-1.28-.153-.608.06-1.051.37-1.329.93-.154.311-.19.598-.108.86a.99.99 0 0 0 .536.607c.174.087.368.118.581.095.213-.024.461-.129.744-.314l.744-.5c.526-.374.988-.613 1.385-.716.398-.102.785-.06 1.162.127.465.23.764.585.899 1.065.134.48.077.97-.172 1.473-.11.22-.27.44-.482.66-.215.224-.33.353-.347.386a.354.354 0 0 0-.049.177.29.29 0 0 0 .057.137l-.074.149-1.758-.817.096-.193c.443.117.812.16 1.106.13.542-.052.933-.32 1.174-.806.144-.29.168-.562.071-.817a.996.996 0 0 0-.505-.56c-.381-.189-.863-.071-1.446.353l-.848.603c-.92.645-1.698.81-2.337.492a1.673 1.673 0 0 1-.927-1.148c-.13-.52-.048-1.076.246-1.669.123-.249.304-.51.544-.785.239-.274.373-.44.402-.498a.2.2 0 0 0 .008-.158.376.376 0 0 0-.081-.149l.08-.162 2.01.996zM11.89 39.682l-4.3-1.119c-.305-.08-.56-.1-.766-.063-.384.078-.634.338-.749.782-.08.304-.056.628.07.972.069.195.18.403.333.625l3.683.957c.345.09.588.082.731-.025.143-.106.277-.358.405-.756l.221.058-.564 2.17-4.732-1.23c-.304-.079-.529-.08-.673-.002-.141.082-.251.303-.33.66l-.188-.049a20.104 20.104 0 0 0-.013-.584 13.53 13.53 0 0 0-.03-.632c-.01-.127-.04-.408-.09-.842.007-.022.021-.032.045-.031.019 0 .042.004.069.01l1.082.282c-.284-.4-.48-.747-.59-1.043-.17-.45-.2-.89-.089-1.315.102-.39.336-.72.704-.994.364-.278.869-.333 1.514-.166l3.488.907c.358.094.618.08.778-.041.102-.079.21-.276.326-.59l.188.049-.522 2.01zM3.931 46.355c.036.36.098.601.187.72.136.184.406.275.808.271l3.59-.033c.343-.003.567-.051.673-.145.105-.089.157-.237.155-.446 0-.097-.006-.17-.015-.222a1.224 1.224 0 0 0-.05-.166l.242-.002.172.498c.061.18.173.476.334.886.161.41.242.628.242.65 0 .024-.011.038-.034.043a.805.805 0 0 1-.132.008l-.938.008c.421.455.712.848.872 1.18.165.332.25.674.253 1.026.004.476-.154.858-.476 1.143a2.11 2.11 0 0 1-.712.374c.35.34.61.636.78.89.29.436.438.884.442 1.342.007.746-.292 1.246-.896 1.502-.341.146-.882.223-1.623.23l-2.882.026c-.329.003-.553.077-.672.221-.114.15-.188.414-.222.794l-.18.002-.029-3.132.195-.002c.04.402.124.666.25.79.126.128.381.19.766.187l2.993-.027c.449-.004.78-.056.991-.155.378-.175.565-.512.56-1.012-.002-.301-.104-.599-.306-.893a4.435 4.435 0 0 0-.561-.627l-3.556.032c-.375.004-.659.071-.852.203-.193.136-.295.416-.305.843l-.18.001-.03-3.187.181-.002c.06.44.169.719.327.838.159.118.546.175 1.161.17l1.945-.018c.713-.007 1.203-.057 1.47-.152.453-.157.677-.483.672-.979a1.651 1.651 0 0 0-.243-.83 2.564 2.564 0 0 0-.611-.718l-3.799.035c-.351.003-.594.066-.727.187-.133.126-.2.395-.201.807l-.18.002-.03-3.16.181-.001zM13.742 67.615c.136.31.193.624.171.942a2.225 2.225 0 0 1-.154.651l2.022-.888c.259-.114.424-.222.495-.324.073-.098.063-.255-.032-.47a1.346 1.346 0 0 0-.065-.132 26.16 26.16 0 0 1-.137-.243l.21-.092.362.463c.134.168.271.336.41.502.14.167.266.31.38.433.05.058.14.153.269.283l.004.044-.673.28-.756.318c-.256.107-.51.216-.76.326l-5.2 2.27c-.275.12-.453.239-.533.355-.08.116-.057.32.072.613l.061.14c.025.045.052.089.08.132l-.209.092c-.02-.022-.26-.283-.723-.782l-.814-.834.038-.07.782-.343c-.363-.124-.637-.248-.824-.374a2.19 2.19 0 0 1-.758-.948c-.317-.721-.296-1.428.062-2.121a3.306 3.306 0 0 1 1.645-1.52c.92-.404 1.826-.483 2.717-.238.898.248 1.518.76 1.858 1.535zm-5.339 2.627c.146.33.36.554.645.672.284.118.513.139.687.062l2.728-1.198c.55-.242.873-.56.968-.956.1-.393.089-.73-.034-1.01-.235-.533-.655-.844-1.26-.933-.6-.09-1.247.017-1.938.32-.682.3-1.221.725-1.617 1.273-.395.553-.454 1.142-.179 1.77zM13.695 74.916c.743-.544 1.543-.769 2.4-.673.862.096 1.566.516 2.11 1.26.543.739.749 1.529.62 2.37-.13.841-.599 1.557-1.405 2.148-.743.545-1.562.783-2.455.715-.894-.068-1.615-.476-2.162-1.222-.526-.717-.707-1.517-.545-2.4.163-.882.642-1.615 1.437-2.198zm4.06.676c-.216-.295-.501-.48-.854-.554-.613-.125-1.336.118-2.17.729a4.928 4.928 0 0 0-1.53 1.81c-.354.725-.335 1.354.057 1.888.306.418.734.598 1.283.54.551-.054 1.139-.31 1.762-.767a4.968 4.968 0 0 0 1.51-1.77c.36-.706.341-1.331-.058-1.876zM17.681 84.65c.343.263.614.4.815.41.203.006.436-.132.698-.412l4.634-4.956c.21-.223.335-.394.376-.513.066-.206-.005-.405-.211-.597a1.245 1.245 0 0 0-.172-.132 6.03 6.03 0 0 0-.25-.15l.156-.167c.57.306 1.272.657 2.104 1.055.024.022.028.045.012.069a.719.719 0 0 1-.113.14l-5.687 6.082c-.276.294-.403.533-.384.716.022.179.181.43.477.75l-.133.142-2.455-2.296.133-.142zM24.868 86.987c.494-.778 1.157-1.279 1.989-1.502.839-.224 1.647-.09 2.425.404.774.492 1.254 1.153 1.44 1.983.185.831.01 1.668-.526 2.513-.494.777-1.17 1.297-2.027 1.56-.857.261-1.676.144-2.458-.352-.75-.476-1.21-1.155-1.38-2.036-.17-.881.008-1.738.537-2.57zm4.026-.85a1.379 1.379 0 0 0-.996-.205c-.617.108-1.202.597-1.755 1.469a4.928 4.928 0 0 0-.767 2.244c-.065.803.182 1.382.74 1.737.438.278.902.29 1.392.036.494-.251.948-.703 1.363-1.356.429-.676.683-1.409.762-2.198.078-.79-.168-1.365-.739-1.727zM31.927 94.498c.41.12.7.154.87.102.171-.058.325-.259.46-.604l1.14-2.916c.167-.427.245-.747.234-.96-.005-.216-.114-.365-.325-.448a1.132 1.132 0 0 0-.182-.049 2.534 2.534 0 0 0-.235-.047l.083-.213.86.03c.295.01.499.016.613.016.248.002.506-.003.775-.017.03.011.043.029.04.052a.48.48 0 0 1-.04.141l-.416 1.06c.426-.275.809-.471 1.147-.587.343-.115.653-.118.929-.01.22.086.372.223.458.41a.692.692 0 0 1 .015.573.693.693 0 0 1-.336.383.534.534 0 0 1-.466.027c-.163-.064-.3-.205-.409-.421-.105-.215-.205-.341-.3-.379-.15-.059-.384-.008-.7.152-.314.155-.522.362-.623.62l-1.14 2.918c-.146.37-.16.663-.045.877.116.21.377.389.781.537l-.083.213-3.189-1.246.084-.214zM46.735 96.451l.229.012c.08.533.202.944.367 1.236.297.534.758.817 1.382.85.347.017.625-.063.833-.243a.99.99 0 0 0 .344-.733 1.028 1.028 0 0 0-.145-.57c-.106-.187-.3-.373-.583-.559l-.754-.484c-.553-.334-.955-.663-1.207-.987a1.623 1.623 0 0 1-.346-1.116c.026-.518.233-.934.62-1.248.387-.314.86-.456 1.42-.427.245.012.51.072.797.18.291.107.455.162.492.164a.354.354 0 0 0 .183-.025.29.29 0 0 0 .102-.106l.167.008-.051 1.938-.215-.011c-.07-.454-.176-.81-.32-1.067-.264-.477-.666-.73-1.207-.757-.323-.017-.583.07-.778.259a.996.996 0 0 0-.313.686c-.022.425.277.82.898 1.187l.89.539c.958.587 1.418 1.236 1.381 1.948a1.673 1.673 0 0 1-.686 1.307c-.425.326-.968.472-1.629.438a3.755 3.755 0 0 1-.936-.187c-.346-.11-.552-.168-.617-.171a.2.2 0 0 0-.149.055.376.376 0 0 0-.104.134l-.18-.01.115-2.24zM55.078 89.671a.714.714 0 0 1 .144-.535.687.687 0 0 1 .484-.276.679.679 0 0 1 .53.152c.159.12.251.281.276.484a.7.7 0 0 1-.151.536.69.69 0 0 1-.478.268.714.714 0 0 1-.805-.629zm.186 8.814c.486-.106.786-.227.9-.362.114-.14.137-.479.071-1.016l-.403-3.288c-.037-.299-.083-.503-.138-.613-.092-.18-.248-.256-.47-.23a.853.853 0 0 0-.15.033 9.235 9.235 0 0 0-.4.161l-.025-.213.284-.133c.772-.36 1.309-.627 1.61-.8a.904.904 0 0 1 .237-.113.382.382 0 0 1 .027.102l.607 4.949c.064.524.167.845.307.963.145.117.443.167.893.15l.024.192-3.35.411-.024-.193zM63.982 90.43l.136.48-1.362.387 1.078 3.852c.095.339.197.587.304.744.194.277.447.371.759.283a.77.77 0 0 0 .382-.231c.099-.11.2-.269.305-.477l.216.098-.09.242c-.144.378-.326.668-.548.87a1.736 1.736 0 0 1-.693.406c-.526.149-.948.016-1.268-.398-.175-.225-.325-.563-.453-1.012L61.6 91.625l-.729.207a.293.293 0 0 1-.064-.025.099.099 0 0 1-.029-.05c-.012-.044-.013-.08-.002-.108.015-.033.063-.11.145-.228.235-.342.398-.609.487-.803.093-.2.295-.709.606-1.528.058-.017.092-.022.104-.016.016.005.032.037.048.095l.466 1.644 1.35-.383zM76.52 86.94c-.34.445-.595.853-.762 1.225-.32.715-.332 1.29-.037 1.722.237.348.526.526.868.535.222.005.425-.055.609-.18.252-.172.445-.407.578-.704.137-.3.132-.56-.017-.778l-1.239-1.82zm-1.552 4.039c-.377-.555-.415-1.207-.113-1.956.196-.47.686-1.26 1.47-2.37l-.332-.488c-.266-.39-.49-.636-.67-.737-.305-.168-.662-.112-1.071.166a1.35 1.35 0 0 0-.456.529c-.105.223-.097.424.026.604.03.046.094.118.189.216.092.094.148.157.169.187.146.214.177.412.092.593a.647.647 0 0 1-.236.27c-.172.117-.342.151-.51.103a.717.717 0 0 1-.395-.285c-.182-.268-.208-.66-.077-1.175.132-.52.518-1 1.157-1.434.743-.506 1.41-.607 2.002-.305.322.168.655.504.998 1.01l1.567 2.302c.151.221.271.364.359.427.151.116.305.12.462.013a.627.627 0 0 0 .191-.188c.04-.066.094-.199.166-.399l.203.299c-.02.232-.07.445-.146.637a1.396 1.396 0 0 1-.506.663c-.26.178-.507.222-.74.135-.23-.09-.43-.248-.6-.474-.119.45-.24.807-.363 1.07-.208.444-.469.773-.782.987a1.45 1.45 0 0 1-1.09.237c-.4-.069-.721-.281-.964-.637zM83.432 86.451c.212-.293.325-.514.338-.663.02-.228-.122-.474-.426-.738l-2.708-2.357c-.259-.225-.458-.337-.6-.337-.138-.004-.275.073-.412.23a1.343 1.343 0 0 0-.135.177 1.225 1.225 0 0 0-.073.157l-.183-.16.202-.486c.073-.175.186-.47.337-.885.152-.414.236-.63.25-.647.016-.017.034-.02.054-.009.02.012.056.04.105.082l.707.615c-.014-.62.03-1.106.13-1.46.096-.359.26-.67.49-.936.314-.36.685-.54 1.115-.54.23.004.49.068.781.192-.037-.487-.034-.88.007-1.182.072-.52.258-.953.56-1.299.489-.562 1.044-.739 1.666-.53.352.118.808.419 1.367.905l2.174 1.892c.248.216.465.309.65.28.184-.036.415-.185.692-.447l.136.118-2.056 2.363-.146-.128c.236-.328.348-.58.336-.756-.01-.18-.159-.396-.449-.648l-2.257-1.965c-.34-.295-.621-.475-.845-.542-.4-.12-.763.009-1.091.386-.197.227-.318.518-.363.872-.025.205-.023.486.005.841l2.682 2.334c.283.246.54.384.772.414.235.026.497-.117.787-.429l.136.119-2.092 2.404-.136-.118c.247-.368.35-.65.31-.844-.04-.194-.291-.493-.756-.897l-1.467-1.276c-.538-.468-.938-.756-1.202-.862-.442-.183-.826-.087-1.151.287a1.65 1.65 0 0 0-.369.783c-.064.307-.07.62-.018.942l2.865 2.493c.266.231.489.345.669.343.183-.007.412-.164.686-.471l.136.118-2.074 2.384-.136-.119zM88.02 69.48c.289-.586.745-.998 1.37-1.237.62-.241 1.301-.178 2.044.19l-1.954 3.952c.984.435 1.793.564 2.428.387.635-.177 1.085-.535 1.352-1.075.215-.436.283-.86.202-1.271-.08-.412-.268-.848-.562-1.308l.182-.181c.443.43.773.991.99 1.682.218.686.16 1.368-.174 2.044-.386.78-.979 1.239-1.78 1.375-.798.132-1.581.008-2.349-.371-.834-.413-1.432-1.015-1.794-1.809-.362-.793-.347-1.586.044-2.379zm.276.585c-.234.473-.203.938.093 1.394.159.243.394.478.705.705l1.299-2.627c-.438-.16-.786-.234-1.045-.222-.466.023-.817.273-1.052.75zM91.209 61.156l.48.137-.39 1.362 3.842 1.115c.338.097.602.142.792.133.338-.018.551-.184.64-.495a.77.77 0 0 0 .006-.447 2.208 2.208 0 0 0-.244-.51l.197-.132.158.205c.245.32.395.628.45.923.055.295.049.563-.02.804-.15.525-.487.814-1.007.867-.283.03-.65-.02-1.1-.149l-4.045-1.159-.208.728a.29.29 0 0 1-.056.042.098.098 0 0 1-.057-.002c-.044-.013-.075-.031-.092-.056a2.14 2.14 0 0 1-.118-.243 5.932 5.932 0 0 0-.425-.837c-.12-.184-.447-.624-.98-1.32.017-.059.03-.09.042-.097.013-.01.048-.008.106.009l1.642.47.387-1.348zM98.446 55.825c.463.061.873.286 1.228.673.355.388.594.786.718 1.195l-.293.094c-.19-.473-.418-.811-.685-1.015-.267-.208-.497-.325-.69-.35-.064-.008-.108.007-.132.046a.322.322 0 0 0-.045.127l-.012.468a.855.855 0 0 1-.256.505c-.15.144-.344.2-.583.168a.885.885 0 0 1-.51-.27c-.157-.156-.216-.386-.176-.689.038-.289.188-.533.447-.732.255-.2.585-.273.989-.22zM91.487 43.575c-.105-.569-.048-1.085.171-1.55.215-.468.497-.735.848-.8a.68.68 0 0 1 .452.078c.147.081.24.23.281.45a.63.63 0 0 1-.085.453c-.087.139-.23.255-.43.348l-.312.143c-.23.104-.382.238-.455.403-.068.168-.079.374-.033.62.096.52.405.916.927 1.191.517.271 1.15.337 1.902.198a3.152 3.152 0 0 0 1.741-.931c.473-.498.647-1.081.522-1.75a1.943 1.943 0 0 0-.699-1.177c-.216-.176-.542-.36-.978-.553l.08-.212c.595.158 1.078.35 1.45.578.712.437 1.136 1.018 1.27 1.742.132.71-.031 1.39-.49 2.04-.458.65-1.167 1.065-2.128 1.243-.942.175-1.808.028-2.597-.443-.789-.47-1.268-1.16-1.437-2.07zM93.362 37.206c-.85.355-1.68.386-2.49.092-.816-.296-1.402-.869-1.757-1.719-.353-.846-.368-1.662-.045-2.45.323-.787.946-1.373 1.869-1.76.85-.354 1.701-.394 2.554-.118.853.276 1.458.84 1.815 1.695.342.82.331 1.64-.034 2.46-.365.82-1.002 1.42-1.912 1.8zm-3.788-1.608c.141.337.375.583.7.738.567.265 1.327.199 2.28-.2a4.927 4.927 0 0 0 1.913-1.401c.513-.62.642-1.237.387-1.848-.2-.478-.573-.754-1.12-.826-.55-.077-1.18.034-1.894.332a4.966 4.966 0 0 0-1.882 1.366c-.516.602-.644 1.215-.384 1.839zM91.836 26.76c-.224-.244-.422-.385-.595-.421-.18-.038-.443.066-.791.312l-2.877 2.029c-.243.17-.397.313-.463.428-.093.174-.061.372.096.595.024.034.052.069.082.104l.11.118-.2.14a62.55 62.55 0 0 0-1.128-.852l-.552-.41c-.019-.026-.02-.048-.004-.065a.272.272 0 0 1 .072-.068l.834-.588c-.57-.119-.986-.233-1.246-.345a2.085 2.085 0 0 1-.926-.723 1.473 1.473 0 0 1-.275-.86c-.001-.611.367-1.177 1.105-1.697l2.65-1.87c.273-.192.43-.385.474-.58.044-.196-.023-.423-.2-.683l.158-.112 1.71 2.423-.16.112c-.232-.25-.444-.389-.635-.419-.194-.026-.485.096-.87.368l-2.424 1.71c-.325.229-.551.479-.677.75-.13.273-.081.572.148.897.158.223.394.397.708.521.177.067.439.132.783.195l3.178-2.241c.272-.192.413-.382.422-.57.006-.185-.08-.411-.256-.677l.159-.112 1.749 2.48-.16.111zM83.822 19.724l-.167-.157c.282-.458.453-.852.514-1.182.117-.6-.053-1.114-.51-1.54-.254-.237-.519-.354-.794-.35a.99.99 0 0 0-.735.339 1.028 1.028 0 0 0-.256.53c-.039.21-.01.478.086.802l.266.856c.207.612.304 1.123.288 1.533-.015.41-.166.769-.454 1.077-.353.379-.78.564-1.278.555-.498-.009-.952-.205-1.361-.587a2.679 2.679 0 0 1-.494-.65c-.154-.27-.244-.418-.271-.444a.355.355 0 0 0-.156-.097.29.29 0 0 0-.147.015l-.122-.114 1.287-1.45.157.147c-.239.391-.386.732-.441 1.022-.106.535.039.987.435 1.356.237.221.49.322.762.303a.996.996 0 0 0 .682-.323c.29-.311.316-.807.076-1.487l-.334-.985c-.354-1.066-.288-1.86.198-2.38.373-.4.828-.586 1.366-.559.535.024 1.044.262 1.529.714.203.19.401.438.595.746.194.308.315.484.362.528a.2.2 0 0 0 .15.054.376.376 0 0 0 .165-.036l.133.124-1.53 1.64zM27.602 10.364c-.338.262-.535.477-.591.646-.054.172.02.414.22.725l1.698 2.632c.249.385.463.635.642.751.178.122.362.122.553-.001.039-.026.088-.065.146-.12.057-.047.116-.102.176-.163l.124.193-.528.68c-.18.232-.305.395-.372.487-.146.2-.293.413-.439.639-.027.018-.049.018-.065.001a.48.48 0 0 1-.09-.115l-.618-.957c-.026.507-.09.932-.195 1.274-.108.345-.286.598-.535.759a.793.793 0 0 1-.601.131.692.692 0 0 1-.473-.322.693.693 0 0 1-.114-.497c.023-.17.107-.3.25-.393.149-.096.342-.124.582-.086.236.04.396.034.482-.022.136-.088.232-.306.287-.656.058-.346.011-.635-.14-.869l-1.698-2.631c-.215-.335-.444-.518-.685-.55-.238-.028-.536.079-.892.32l-.125-.193 2.877-1.856.124.193z" fill="#333"/><path d="M52.304 38.674c-6.519 0-11.852 5.334-11.852 11.852 0 6.518 5.333 11.852 11.852 11.852 6.518 0 11.852-5.334 11.852-11.852 0-6.519-5.334-11.852-11.852-11.852zm4.978 16.83-6.163-3.793V44.6h1.777v6.163l5.334 3.2-.948 1.54z" fill="#000"/></svg>